<svg width="90" height="26" viewBox="0 0 90 26" fill="none" xmlns="http://www.w3.org/2000/svg">
<path d="M6.26404 11.4687C4.57103 11.1407 3.80595 10.8404 3.80595 10.1029C3.80595 9.44771 4.5161 8.95596 5.74531 8.95596C6.96753 8.95596 7.48341 9.73088 7.73007 10.4893C7.76785 10.6058 7.8923 10.6693 8.00817 10.6293L10.7386 9.69088C10.8463 9.65406 10.9075 9.53819 10.8739 9.42962C10.171 7.18041 8.28023 5.89692 5.71801 5.89692C2.05801 5.89692 0.228168 8.082 0.228168 10.3217C0.228168 13.1506 2.44118 14.0944 5.22468 14.6249C5.34309 14.6474 5.46087 14.6702 5.58118 14.6915C7.08341 14.9372 7.82087 15.3468 7.82087 16.0296C7.82087 16.849 7.0561 17.368 5.71801 17.368C4.37229 17.368 3.59071 16.6325 3.25642 15.5093C3.22595 15.4064 3.11515 15.3499 3.01325 15.3849L0.145946 16.3706C0.0373745 16.4077 -0.0248478 16.5245 0.00943794 16.6341C0.722136 18.9109 2.77737 20.4268 5.71801 20.4268C9.35007 20.4268 11.3986 18.3509 11.3986 15.9204C11.3986 13.1344 9.40499 12.042 6.26404 11.4687Z" fill="#6700FF"/>
<path d="M20.698 5.89731C18.7863 5.89731 17.639 6.71667 16.8469 7.64524V1.21762C16.8469 1.07508 16.7063 0.974766 16.5714 1.02112L13.1638 2.19254C13.0796 2.22143 13.0234 2.30016 13.0234 2.38905V19.8373C13.0234 19.9519 13.1165 20.0449 13.2311 20.0449H16.639C16.7539 20.0449 16.8469 19.9519 16.8469 19.8373V12.6706C16.8469 10.5132 17.9393 9.53 19.4415 9.53C20.8892 9.53 21.845 10.2671 21.845 12.5338V19.8373C21.845 19.9519 21.938 20.0449 22.053 20.0449H25.4882C25.6031 20.0449 25.6961 19.9519 25.6961 19.8373V12.07C25.6961 7.83635 24.0301 5.89731 20.698 5.89731Z" fill="#6700FF"/>
<path d="M34.4171 16.7572C32.4304 16.7572 30.8199 15.1471 30.8199 13.1601C30.8199 11.1737 32.4304 9.56325 34.4171 9.56325C36.4037 9.56325 38.0142 11.1737 38.0142 13.1601C38.0142 15.1471 36.4037 16.7572 34.4171 16.7572ZM34.4171 5.90737C30.4114 5.90737 27.1641 9.15467 27.1641 13.1601C27.1641 17.1658 30.4114 20.4131 34.4171 20.4131C38.4228 20.4131 41.6698 17.1658 41.6698 13.1601C41.6698 9.15467 38.4228 5.90737 34.4171 5.90737Z" fill="#6700FF"/>
<path d="M87.7182 5.8973C86.0249 5.8973 84.9322 6.88079 84.4135 7.78206L83.8909 6.41349C83.8601 6.33286 83.783 6.27984 83.6966 6.27984H80.8798C80.7649 6.27984 80.6719 6.37286 80.6719 6.48746V19.8373C80.6719 19.9519 80.7649 20.0449 80.8798 20.0449H84.3424C84.4573 20.0449 84.5503 19.9519 84.5503 19.8373V12.643C84.5503 10.5402 85.697 9.53 87.1443 9.53C87.7417 9.53 88.1725 9.66302 88.4627 9.82556C88.5779 9.89 88.7227 9.84524 88.7712 9.72206L89.9741 6.69095C90.0122 6.59508 89.9779 6.48365 89.8893 6.43127C89.3973 6.14238 88.6801 5.8973 87.7182 5.8973Z" fill="#6700FF"/>
<path d="M63.6983 1.78572C63.2479 0.508579 61.7669 -0.199358 60.4599 0.261595C59.1834 0.711754 58.5053 2.18128 58.9558 3.45842C59.4168 4.7654 60.8561 5.45398 62.1323 5.00382C63.4396 4.54287 64.1593 3.09271 63.6983 1.78572Z" fill="#6700FF"/>
<path d="M59.5963 6.27984H63.0588C63.1738 6.27984 63.2671 6.37286 63.2671 6.48778V19.8373C63.2671 19.9519 63.1738 20.0449 63.0588 20.0449H59.5963C59.4817 20.0449 59.3887 19.9519 59.3887 19.8373V6.48778C59.3887 6.37286 59.4817 6.27984 59.5963 6.27984Z" fill="#6700FF"/>
<path d="M50.7905 16.7592C48.8038 16.7592 47.1933 15.1487 47.1933 13.162C47.1933 11.1757 48.8038 9.56519 50.7905 9.56519C52.7771 9.56519 54.3876 11.1757 54.3876 13.162C54.3876 15.1487 52.7771 16.7592 50.7905 16.7592ZM51.0295 5.89884C48.8178 5.89884 47.479 7.0455 46.8787 7.78328V6.19915C46.8787 6.05693 46.7387 5.95662 46.6038 6.00233L43.3324 7.1109C43.2482 7.13947 43.1914 7.21852 43.1914 7.30773V25.6788C43.1914 25.8211 43.3311 25.9211 43.466 25.8757L46.9285 24.7023C47.013 24.6738 47.0695 24.5947 47.0695 24.5052V18.7077C47.6705 19.4725 49.0635 20.228 51.0841 20.228C54.7711 20.228 57.7755 17.4242 57.7755 13.1636C57.7755 8.90296 54.6895 5.89884 51.0295 5.89884Z" fill="#6700FF"/>
<path d="M68.2028 12.8708C68.1552 12.8873 68.1057 12.8505 68.1089 12.7997C68.1397 12.307 68.4079 10.2086 70.7514 9.44767C73.0727 8.69338 74.5511 10.1105 74.88 10.4712C74.9146 10.5089 74.8984 10.5696 74.8501 10.5861L68.2028 12.8708ZM70.5317 6.05402C66.4692 6.75719 63.9597 10.9731 64.9952 14.9594C65.9927 18.7988 69.7314 21.1093 73.6225 20.248C77.2505 19.4451 78.5749 16.5385 78.8962 15.6642C78.9432 15.5362 78.8571 15.3988 78.7216 15.3826L75.6251 15.0045C75.5412 14.994 75.4603 15.0324 75.4181 15.1058C75.1511 15.5629 74.0476 17.1816 71.8603 17.0556C70.7666 16.9927 69.8498 16.5591 69.0819 15.7105C70.6971 15.154 77.8508 12.7007 79.0793 12.2791C79.1835 12.2435 79.2435 12.1366 79.2178 12.0293C78.9435 10.8807 77.1857 4.90227 70.5317 6.05402Z" fill="#6700FF"/>
</svg>
